{"title":"Faces.in.the.Crowd.2011.BDRip.x264.AC3-Psycho","uid":6732480,"size":1487481211,"categoryP":"video","categoryS":"movies","magnet":"?xt=urn:btih:59fe36986a4d4d4947a230fe355ab9a1ae236632&amp;dn=Faces.in.the.Crowd.2011.BDRip.x264.AC3-Psycho&amp;tr=udp%3A%2F%2Ftracker.openbittorrent.com%3A80&amp;tr=udp%3A%2F%2Fopen.demonii.com%3A1337&amp;tr=udp%3A%2F%2Ftracker.coppersurfer.tk%3A6969&amp;tr=udp%3A%2F%2Fexodus.desync.com%3A6969","seeders":0,"leechers":0,"uploader":"Francisco1206","files":-1,"time":1318208539,"description":"A horror-thriller centered on a woman living with &quot;face-blindness&quot; after surviving a serial killer's attack. As she lives with her condition, one in which facial features change each time she loses sight of them, the killer closes in. \n\nCAST:\n\nMilla Jovovich................Anna Marchant\nSarah Wayne Callies...........Francine\nJulian McMahon................Kerrest\nMichael Shanks................Bryce\nSandrine Holt.................Nina #6\nValentina Vargas..............Nina\nMarianne Faithfull............Dr. Langenkamp\nAnthony Lemke.................Bryce #3\nApollonia Vanova..............Anna #4\nSebastien Roberts.............Lanyon / Stranger / Lurker\nKirsten Robek.................Francine #3\nNels Lennarson................Kerrest #2\nStephen Huszar................Bryce #4\nDavid Ingram..................Bryce #2\n\nSOURCE:Faces in the Crowd 2011 Blu-Ray 1080p AVC TrueHD 5.1-HDChina\n\nSAMPLE INCLUDED:60s/13.6mb\n\nGeneral\n*******\nFormat                           : Matroska\nFile size                        : 1.37 GiB\nDuration                         : 1h 42mn\nOverall bit rate                 : 1 916 Kbps\nEncoded date                     : UTC 2011-10-09 22:53:28\nWriting application              : mkvmerge v5.0.0 ('Die Wahre Liebe') built on Sep 25 2011 20:33:49\nWriting library                  : libebml v1.2.2 + libmatroska v1.3.0\n\nVideo\n*****\nID                               : 1\nFormat                           : AVC\nFormat/Info                      : Advanced Video Codec\nFormat profile                   : &lt;a class=&quot;__cf_email__&quot; href=&quot;/cdn-cgi/l/email-protection&quot; data-cfemail=&quot;216c40484f616d120f11&quot;&gt;[email&amp;#160;protected]&lt;/a&gt;&lt;script data-cfhash='f9e31' type=&quot;text/javascript&quot;&gt;\n/* &lt;![CDATA[ */!function(){try{var t=&quot;currentScript&quot;in document?document.currentScript:function(){for(var t=document.getElementsByTagName(&quot;script&quot;),e=t.length;e--;)if(t[e].getAttribute(&quot;data-cfhash&quot;))return t[e]}();if(t&amp;&amp;t.previousSibling){var e,r,n,i,c=t.previousSibling,a=c.getAttribute(&quot;data-cfemail&quot;);if(a){for(e=&quot;&quot;,r=parseInt(a.substr(0,2),16),n=2;a.length-n;n+=2)i=parseInt(a.substr(n,2),16)^r,e+=String.fromCharCode(i);e=document.createTextNode(e),c.parentNode.replaceChild(e,c)}t.parentNode.removeChild(t);}}catch(u){}}()/* ]]&gt; */&lt;/script&gt;\nFormat settings, CABAC           : Yes\nFormat settings, ReFrames        : 4 frames\nMuxing mode                      : Container profile=&lt;a class=&quot;__cf_email__&quot; href=&quot;/cdn-cgi/l/email-protection&quot; data-cfemail=&quot;c693a8ada8a9b1a886f5e8f6&quot;&gt;[email&amp;#160;protected]&lt;/a&gt;&lt;script data-cfhash='f9e31' type=&quot;text/javascript&quot;&gt;\n/* &lt;![CDATA[ */!function(){try{var t=&quot;currentScript&quot;in document?document.currentScript:function(){for(var t=document.getElementsByTagName(&quot;script&quot;),e=t.length;e--;)if(t[e].getAttribute(&quot;data-cfhash&quot;))return t[e]}();if(t&amp;&amp;t.previousSibling){var e,r,n,i,c=t.previousSibling,a=c.getAttribute(&quot;data-cfemail&quot;);if(a){for(e=&quot;&quot;,r=parseInt(a.substr(0,2),16),n=2;a.length-n;n+=2)i=parseInt(a.substr(n,2),16)^r,e+=String.fromCharCode(i);e=document.createTextNode(e),c.parentNode.replaceChild(e,c)}t.parentNode.removeChild(t);}}catch(u){}}()/* ]]&gt; */&lt;/script&gt;\nCodec ID                         : V_MPEG4/ISO/AVC\nDuration                         : 1h 42mn\nBit rate                         : 1 430 Kbps\nNominal bit rate                 : 1 458 Kbps\nWidth                            : 720 pixels\nHeight                           : 304 pixels\nDisplay aspect ratio             : 2.35:1\nFrame rate mode                  : Variable\nFrame rate                       : 23.976 fps\nResolution                       : 8 bits\nColorimetry                      : 4:2:0\nScan type                        : Progressive\nBits/(Pixel*Frame)               : 0.272\nStream size                      : 1.02 GiB (75%)\nWriting library                  : x264 core 112\n\n\nAudio\n*****\nID                               : 2\nFormat                           : AC-3\nFormat/Info                      : Audio Coding 3\nCodec ID                         : A_AC3\nDuration                         : 1h 42mn\nBit rate mode                    : Constant\nBit rate                         : 448 Kbps\nChannel(s)                       : 6 channels\nChannel positions                : Front: L C R, Side: L R, LFE\nSampling rate                    : 48.0 KHz\nStream size                      : 329 MiB (23%)\n\nText(subtitles)\nID                               : 3\nFormat                           : VobSub\nCodec ID                         : S_VOBSUB\nCodec ID/Info                    : The same subtitle format used on DVDs\nLanguage                         : SPANISH\nLanguage                         : ENGLISH\n\nPLEASE SEED FOR AS LONG AS POSSIBLE!\n","torrent":{"xt":"urn:btih:59fe36986a4d4d4947a230fe355ab9a1ae236632","amp;dn":"Faces.in.the.Crowd.2011.BDRip.x264.AC3-Psycho","amp;tr":["udp%3A%2F%2Ftracker.openbittorrent.com%3A80","udp%3A%2F%2Fopen.demonii.com%3A1337","udp%3A%2F%2Ftracker.coppersurfer.tk%3A6969","udp%3A%2F%2Fexodus.desync.com%3A6969"],"infoHash":"59fe36986a4d4d4947a230fe355ab9a1ae236632","infoHashBuffer":{"type":"Buffer","data":[89,254,54,152,106,77,77,73,71,162,48,254,53,90,185,161,174,35,102,50]},"announce":[],"urlList":[]}}